<svg width="215" height="30" viewBox="0 0 215 30" fill="none" xmlns="http://www.w3.org/2000/svg">
<path d="M161.768 17.4151L164.735 0.495605H171.073L168.316 16.3821C167.576 20.5422 169.139 23.1736 173.544 23.1736C177.948 23.1736 180.545 19.8791 181.159 16.3821L183.958 0.495605H190.296L187.287 17.4151C186.136 24.0042 180.74 29.3928 172.839 29.3928C164.937 29.3928 160.575 23.9973 161.768 17.4151Z" fill="white"/>
<path d="M214.167 19.3974C214.167 23.2643 211.948 26.6846 208.074 28.9042H190.868L195.894 0.502563H211.04C213.302 1.90554 214.579 4.33459 214.579 7.04981C214.579 9.76503 213.386 11.866 211.78 13.5133C213.344 14.9093 214.167 17.0103 214.167 19.3974ZM205.191 24.0112C206.629 22.9433 207.536 21.2122 207.536 19.5231C207.536 18.4551 207.166 17.464 206.51 16.766H199.349L198.072 24.0112H205.191ZM201.366 5.40253L200.214 11.9079H205.812C206.762 11.2518 208.032 10.135 208.032 7.99909C208.032 6.88927 207.662 6.06563 206.964 5.40253H201.366Z" fill="white"/>
<path d="M0 28.9042L6.46348 0.502563H12.3895L18.2736 17.5058L30.3351 0.502563H36.2611L32.6804 28.9042H26.3425L28.4854 12.0684L16.4239 28.9042L10.128 12.0684L6.33784 28.9042H0Z" fill="#6EEB83"/>
<path d="M44.9094 28.9042L47.129 16.3053L39.2695 0.495605H46.2705L51.0448 10.5817L59.6511 0.495605H66.9383L53.4738 16.3053L51.2542 28.9042H44.9163H44.9094Z" fill="#6EEB83"/>
<path d="M63.0154 16.6333C63.0154 7.69894 70.0512 0 81.0028 0C83.5994 0 86.189 0.453701 87.7944 1.27734V7.86646C85.819 6.91718 83.39 6.21918 80.8772 6.21918C74.6231 6.21918 69.765 10.7073 69.765 16.0959C69.765 20.2141 72.6059 23.1736 77.8339 23.1736C80.263 23.1736 82.4826 22.5175 84.4649 21.5263V28.1155C81.8335 28.981 79.3207 29.3928 76.8916 29.3928C68.1247 29.3928 63.0224 24.2485 63.0224 16.6333H63.0154Z" fill="#6EEB83"/>
<path d="M109.656 28.9042L107.639 21.0028H97.0987L92.3244 28.9042H85.4072L102.697 0.502563H108.951L116.196 28.9042H109.649H109.656ZM99.779 16.6333H106.529L104.511 8.80877L99.779 16.6333Z" fill="#6EEB83"/>
<path d="M118.918 27.8362V22.3639C120.81 23.3132 123.197 24.0949 125.382 24.0949C128.264 24.0949 130.24 22.7339 130.24 20.598C130.24 16.1936 121.801 15.37 121.801 8.25035C121.801 3.22475 125.835 0.0209351 132.425 0.0209351C134.937 0.0209351 137.408 0.516513 138.972 1.45881V6.93113C136.668 5.57003 134.693 5.1582 133.088 5.1582C130.372 5.1582 128.809 6.39366 128.809 8.1247C128.809 12.1173 137.206 13.1852 137.206 20.7236C137.206 25.9935 133.171 29.3299 126.212 29.3299C123.33 29.3299 120.698 28.7157 118.925 27.8502L118.918 27.8362Z" fill="#6EEB83"/>
<path d="M164.735 0.502563H171.073L166.25 27.7804C162.599 25.7492 160.819 21.4356 161.852 16.759H148.925L146.782 28.9042H140.445L145.47 0.502563H151.808L150 10.8748H162.927L164.742 0.502563H164.735Z" fill="#6EEB83"/>
</svg>
